<mxfile host="app.diagrams.net" modified="2023-12-18T05:41:36.926Z" agent="Mozilla/5.0 (Windows NT 10.0; Win64; x64) AppleWebKit/537.36 (KHTML, like Gecko) Chrome/120.0.0.0 Safari/537.36" etag="8E5ok7SGTFYGCoRyDmQJ" version="22.1.11" type="device">
  <diagram name="Sayfa -1" id="2TQzkkQcuNdI8hazNQ9W">
    <mxGraphModel dx="4854" dy="2409" grid="0" gridSize="10" guides="1" tooltips="1" connect="1" arrows="1" fold="1" page="1" pageScale="1" pageWidth="827" pageHeight="1169" math="0" shadow="0">
      <root>
        <mxCell id="0" />
        <mxCell id="1" parent="0" />
        <mxCell id="y-ZWZO6-LLxq5nnnECcD-6" style="edgeStyle=orthogonalEdgeStyle;rounded=0;sketch=1;hachureGap=4;jiggle=2;curveFitting=1;orthogonalLoop=1;jettySize=auto;html=1;exitX=0.5;exitY=1;exitDx=0;exitDy=0;entryX=0.5;entryY=0;entryDx=0;entryDy=0;fontFamily=Architects Daughter;fontSource=https%3A%2F%2Ffonts.googleapis.com%2Fcss%3Ffamily%3DArchitects%2BDaughter;fontSize=16;" parent="1" source="y-ZWZO6-LLxq5nnnECcD-1" target="y-ZWZO6-LLxq5nnnECcD-2" edge="1">
          <mxGeometry relative="1" as="geometry" />
        </mxCell>
        <mxCell id="y-ZWZO6-LLxq5nnnECcD-1" value="Başla" style="ellipse;whiteSpace=wrap;html=1;sketch=1;hachureGap=4;jiggle=2;curveFitting=1;fontFamily=Architects Daughter;fontSource=https%3A%2F%2Ffonts.googleapis.com%2Fcss%3Ffamily%3DArchitects%2BDaughter;fontSize=20;" parent="1" vertex="1">
          <mxGeometry x="250" y="-21" width="80" height="50" as="geometry" />
        </mxCell>
        <mxCell id="y-ZWZO6-LLxq5nnnECcD-2" value="" style="rounded=1;whiteSpace=wrap;html=1;sketch=1;hachureGap=4;jiggle=2;curveFitting=1;fontFamily=Architects Daughter;fontSource=https%3A%2F%2Ffonts.googleapis.com%2Fcss%3Ffamily%3DArchitects%2BDaughter;fontSize=20;" parent="1" vertex="1">
          <mxGeometry x="210" y="79" width="160" height="100" as="geometry" />
        </mxCell>
        <mxCell id="y-ZWZO6-LLxq5nnnECcD-8" style="edgeStyle=orthogonalEdgeStyle;rounded=0;sketch=1;hachureGap=4;jiggle=2;curveFitting=1;orthogonalLoop=1;jettySize=auto;html=1;exitX=0.5;exitY=1;exitDx=0;exitDy=0;fontFamily=Architects Daughter;fontSource=https%3A%2F%2Ffonts.googleapis.com%2Fcss%3Ffamily%3DArchitects%2BDaughter;fontSize=16;" parent="1" source="y-ZWZO6-LLxq5nnnECcD-4" target="y-ZWZO6-LLxq5nnnECcD-7" edge="1">
          <mxGeometry relative="1" as="geometry" />
        </mxCell>
        <mxCell id="y-ZWZO6-LLxq5nnnECcD-4" value="GIRIS = &#39;I&#39;;&#xa;CIKIS = &#39;O&#39;;&#xa;DUVAR = &#39;#&#39;;&#xa;YOL = &#39; &#39;;&#xa;KESIF = &#39;e&#39;;&#xa;" style="text;whiteSpace=wrap;fontSize=14;fontFamily=Times New Roman;fontStyle=0" parent="1" vertex="1">
          <mxGeometry x="230" y="84" width="130" height="90" as="geometry" />
        </mxCell>
        <mxCell id="y-ZWZO6-LLxq5nnnECcD-14" style="edgeStyle=orthogonalEdgeStyle;rounded=0;sketch=1;hachureGap=4;jiggle=2;curveFitting=1;orthogonalLoop=1;jettySize=auto;html=1;exitX=0.5;exitY=1;exitDx=0;exitDy=0;entryX=0.5;entryY=0;entryDx=0;entryDy=0;fontFamily=Architects Daughter;fontSource=https%3A%2F%2Ffonts.googleapis.com%2Fcss%3Ffamily%3DArchitects%2BDaughter;fontSize=16;" parent="1" source="y-ZWZO6-LLxq5nnnECcD-7" target="y-ZWZO6-LLxq5nnnECcD-11" edge="1">
          <mxGeometry relative="1" as="geometry" />
        </mxCell>
        <mxCell id="y-ZWZO6-LLxq5nnnECcD-7" value="&lt;font style=&quot;font-size: 17px;&quot;&gt;Labirent bilgilerini girin&lt;/font&gt;" style="shape=parallelogram;perimeter=parallelogramPerimeter;whiteSpace=wrap;html=1;fixedSize=1;sketch=1;hachureGap=4;jiggle=2;curveFitting=1;fontFamily=Architects Daughter;fontSource=https%3A%2F%2Ffonts.googleapis.com%2Fcss%3Ffamily%3DArchitects%2BDaughter;fontSize=20;" parent="1" vertex="1">
          <mxGeometry x="179" y="209" width="235" height="50" as="geometry" />
        </mxCell>
        <mxCell id="y-ZWZO6-LLxq5nnnECcD-19" style="edgeStyle=orthogonalEdgeStyle;rounded=0;sketch=1;hachureGap=4;jiggle=2;curveFitting=1;orthogonalLoop=1;jettySize=auto;html=1;exitX=0.5;exitY=1;exitDx=0;exitDy=0;entryX=0.5;entryY=0;entryDx=0;entryDy=0;fontFamily=Architects Daughter;fontSource=https%3A%2F%2Ffonts.googleapis.com%2Fcss%3Ffamily%3DArchitects%2BDaughter;fontSize=16;" parent="1" source="y-ZWZO6-LLxq5nnnECcD-11" target="y-ZWZO6-LLxq5nnnECcD-16" edge="1">
          <mxGeometry relative="1" as="geometry" />
        </mxCell>
        <mxCell id="y-ZWZO6-LLxq5nnnECcD-11" value="" style="rounded=1;whiteSpace=wrap;html=1;sketch=1;hachureGap=4;jiggle=2;curveFitting=1;fontFamily=Architects Daughter;fontSource=https%3A%2F%2Ffonts.googleapis.com%2Fcss%3Ffamily%3DArchitects%2BDaughter;fontSize=20;arcSize=6;" parent="1" vertex="1">
          <mxGeometry x="179" y="289" width="251" height="130" as="geometry" />
        </mxCell>
        <mxCell id="y-ZWZO6-LLxq5nnnECcD-13" value="Position labirentGiris;&#xa;labirentGiris.x = 0;&#xa; labirentGiris.y = 6;&#xa; labirentKopya[SATIR][SUTUN];&#xa; labirentGoruntule[SATIR][SUTUN];" style="text;whiteSpace=wrap;fontSize=15;fontFamily=Times New Roman;" parent="1" vertex="1">
          <mxGeometry x="200" y="299" width="290" height="110" as="geometry" />
        </mxCell>
        <mxCell id="y-ZWZO6-LLxq5nnnECcD-22" style="edgeStyle=orthogonalEdgeStyle;rounded=0;sketch=1;hachureGap=4;jiggle=2;curveFitting=1;orthogonalLoop=1;jettySize=auto;html=1;exitX=1;exitY=0.5;exitDx=0;exitDy=0;entryX=0;entryY=0.5;entryDx=0;entryDy=0;fontFamily=Architects Daughter;fontSource=https%3A%2F%2Ffonts.googleapis.com%2Fcss%3Ffamily%3DArchitects%2BDaughter;fontSize=16;" parent="1" source="y-ZWZO6-LLxq5nnnECcD-16" target="y-ZWZO6-LLxq5nnnECcD-20" edge="1">
          <mxGeometry relative="1" as="geometry" />
        </mxCell>
        <mxCell id="y-ZWZO6-LLxq5nnnECcD-23" value="E" style="edgeLabel;html=1;align=center;verticalAlign=middle;resizable=0;points=[];fontSize=20;fontFamily=Architects Daughter;" parent="y-ZWZO6-LLxq5nnnECcD-22" vertex="1" connectable="0">
          <mxGeometry x="-0.1333" y="-4" relative="1" as="geometry">
            <mxPoint y="-4" as="offset" />
          </mxGeometry>
        </mxCell>
        <mxCell id="y-ZWZO6-LLxq5nnnECcD-16" value="" style="verticalLabelPosition=bottom;verticalAlign=top;html=1;shape=hexagon;perimeter=hexagonPerimeter2;arcSize=6;size=0.27;sketch=1;hachureGap=4;jiggle=2;curveFitting=1;fontFamily=Architects Daughter;fontSource=https%3A%2F%2Ffonts.googleapis.com%2Fcss%3Ffamily%3DArchitects%2BDaughter;fontSize=20;" parent="1" vertex="1">
          <mxGeometry x="210" y="475" width="190" height="60" as="geometry" />
        </mxCell>
        <mxCell id="y-ZWZO6-LLxq5nnnECcD-18" value="i=0 ,i++ ,i&amp;lt;SATIR" style="text;html=1;align=center;verticalAlign=middle;resizable=0;points=[];autosize=1;strokeColor=none;fillColor=none;fontSize=20;fontFamily=Architects Daughter;" parent="1" vertex="1">
          <mxGeometry x="225" y="485" width="160" height="40" as="geometry" />
        </mxCell>
        <mxCell id="y-ZWZO6-LLxq5nnnECcD-28" style="edgeStyle=orthogonalEdgeStyle;rounded=0;sketch=1;hachureGap=4;jiggle=2;curveFitting=1;orthogonalLoop=1;jettySize=auto;html=1;exitX=1;exitY=0.5;exitDx=0;exitDy=0;entryX=0;entryY=0.5;entryDx=0;entryDy=0;fontFamily=Architects Daughter;fontSource=https%3A%2F%2Ffonts.googleapis.com%2Fcss%3Ffamily%3DArchitects%2BDaughter;fontSize=16;" parent="1" source="y-ZWZO6-LLxq5nnnECcD-20" target="y-ZWZO6-LLxq5nnnECcD-26" edge="1">
          <mxGeometry relative="1" as="geometry" />
        </mxCell>
        <mxCell id="y-ZWZO6-LLxq5nnnECcD-29" value="E" style="edgeLabel;html=1;align=center;verticalAlign=middle;resizable=0;points=[];fontSize=20;fontFamily=Architects Daughter;" parent="y-ZWZO6-LLxq5nnnECcD-28" vertex="1" connectable="0">
          <mxGeometry x="0.0183" y="2" relative="1" as="geometry">
            <mxPoint y="2" as="offset" />
          </mxGeometry>
        </mxCell>
        <mxCell id="y-ZWZO6-LLxq5nnnECcD-30" style="edgeStyle=orthogonalEdgeStyle;rounded=0;sketch=1;hachureGap=4;jiggle=2;curveFitting=1;orthogonalLoop=1;jettySize=auto;html=1;exitX=0.5;exitY=1;exitDx=0;exitDy=0;fontFamily=Architects Daughter;fontSource=https%3A%2F%2Ffonts.googleapis.com%2Fcss%3Ffamily%3DArchitects%2BDaughter;fontSize=16;entryX=0.5;entryY=0;entryDx=0;entryDy=0;" parent="1" source="y-ZWZO6-LLxq5nnnECcD-20" target="y-ZWZO6-LLxq5nnnECcD-16" edge="1">
          <mxGeometry relative="1" as="geometry">
            <mxPoint x="960" y="449" as="targetPoint" />
            <Array as="points">
              <mxPoint x="555" y="555" />
              <mxPoint x="960" y="555" />
              <mxPoint x="960" y="455" />
              <mxPoint x="305" y="455" />
            </Array>
          </mxGeometry>
        </mxCell>
        <mxCell id="y-ZWZO6-LLxq5nnnECcD-20" value="" style="verticalLabelPosition=bottom;verticalAlign=top;html=1;shape=hexagon;perimeter=hexagonPerimeter2;arcSize=6;size=0.27;sketch=1;hachureGap=4;jiggle=2;curveFitting=1;fontFamily=Architects Daughter;fontSource=https%3A%2F%2Ffonts.googleapis.com%2Fcss%3Ffamily%3DArchitects%2BDaughter;fontSize=20;" parent="1" vertex="1">
          <mxGeometry x="460" y="475" width="190" height="60" as="geometry" />
        </mxCell>
        <mxCell id="y-ZWZO6-LLxq5nnnECcD-21" value="i=0 ,i++ ,i&amp;lt;SATIR" style="text;html=1;align=center;verticalAlign=middle;resizable=0;points=[];autosize=1;strokeColor=none;fillColor=none;fontSize=20;fontFamily=Architects Daughter;" parent="1" vertex="1">
          <mxGeometry x="475" y="485" width="160" height="40" as="geometry" />
        </mxCell>
        <mxCell id="y-ZWZO6-LLxq5nnnECcD-26" value="" style="rounded=0;whiteSpace=wrap;html=1;sketch=1;hachureGap=4;jiggle=2;curveFitting=1;fontFamily=Architects Daughter;fontSource=https%3A%2F%2Ffonts.googleapis.com%2Fcss%3Ffamily%3DArchitects%2BDaughter;fontSize=20;" parent="1" vertex="1">
          <mxGeometry x="695" y="477" width="220" height="55" as="geometry" />
        </mxCell>
        <mxCell id="y-ZWZO6-LLxq5nnnECcD-32" style="edgeStyle=orthogonalEdgeStyle;rounded=0;sketch=1;hachureGap=4;jiggle=2;curveFitting=1;orthogonalLoop=1;jettySize=auto;html=1;exitX=1;exitY=0.5;exitDx=0;exitDy=0;fontFamily=Architects Daughter;fontSource=https%3A%2F%2Ffonts.googleapis.com%2Fcss%3Ffamily%3DArchitects%2BDaughter;fontSize=16;" parent="1" source="y-ZWZO6-LLxq5nnnECcD-27" edge="1">
          <mxGeometry relative="1" as="geometry">
            <mxPoint x="310" y="469" as="targetPoint" />
            <Array as="points">
              <mxPoint x="945" y="505" />
              <mxPoint x="945" y="460" />
              <mxPoint x="311" y="460" />
            </Array>
          </mxGeometry>
        </mxCell>
        <mxCell id="y-ZWZO6-LLxq5nnnECcD-27" value="labirentGoruntule[i][j] = labirent[i][j];&#xa;labirentKopya[i][j] = labirent[i][j];" style="text;whiteSpace=wrap;fontSize=12;fontFamily=Times New Roman;" parent="1" vertex="1">
          <mxGeometry x="715" y="479.5" width="210" height="50" as="geometry" />
        </mxCell>
        <mxCell id="y-ZWZO6-LLxq5nnnECcD-36" style="edgeStyle=orthogonalEdgeStyle;rounded=0;sketch=1;hachureGap=4;jiggle=2;curveFitting=1;orthogonalLoop=1;jettySize=auto;html=1;exitX=0.5;exitY=1;exitDx=0;exitDy=0;entryX=0.5;entryY=0;entryDx=0;entryDy=0;fontFamily=Architects Daughter;fontSource=https%3A%2F%2Ffonts.googleapis.com%2Fcss%3Ffamily%3DArchitects%2BDaughter;fontSize=16;" parent="1" source="y-ZWZO6-LLxq5nnnECcD-16" target="y-ZWZO6-LLxq5nnnECcD-39" edge="1">
          <mxGeometry relative="1" as="geometry">
            <mxPoint x="305.69399999999996" y="576.8000000000002" as="targetPoint" />
          </mxGeometry>
        </mxCell>
        <mxCell id="y-ZWZO6-LLxq5nnnECcD-37" value="&lt;div style=&quot;text-align: left; font-size: 17px;&quot;&gt;&lt;span style=&quot;background-color: initial;&quot;&gt;&lt;font style=&quot;font-size: 17px;&quot;&gt;Stack(int capacity)&lt;/font&gt;&lt;/span&gt;&lt;/div&gt;&lt;div style=&quot;text-align: left; font-size: 17px;&quot;&gt;&lt;span style=&quot;background-color: initial;&quot;&gt;&lt;font style=&quot;font-size: 17px;&quot;&gt;Push(Position elem)&lt;/font&gt;&lt;/span&gt;&lt;/div&gt;&lt;div style=&quot;text-align: left; font-size: 17px;&quot;&gt;&lt;span style=&quot;background-color: initial;&quot;&gt;&lt;font style=&quot;font-size: 17px;&quot;&gt;Position Pop()&lt;/font&gt;&lt;/span&gt;&lt;/div&gt;&lt;div style=&quot;text-align: left; font-size: 17px;&quot;&gt;&lt;span style=&quot;background-color: initial;&quot;&gt;&lt;font style=&quot;font-size: 17px;&quot;&gt;GetLength()&lt;/font&gt;&lt;/span&gt;&lt;/div&gt;" style="shape=process;whiteSpace=wrap;html=1;backgroundOutline=1;sketch=1;hachureGap=4;jiggle=2;curveFitting=1;fontFamily=Architects Daughter;fontSource=https%3A%2F%2Ffonts.googleapis.com%2Fcss%3Ffamily%3DArchitects%2BDaughter;fontSize=20;" parent="1" vertex="1">
          <mxGeometry x="-1329" y="10" width="320" height="100" as="geometry" />
        </mxCell>
        <mxCell id="y-ZWZO6-LLxq5nnnECcD-39" value="&lt;div style=&quot;border-color: var(--border-color); text-align: left; font-size: 17px;&quot;&gt;&lt;br&gt;&lt;/div&gt;&lt;div style=&quot;border-color: var(--border-color); text-align: left; font-size: 17px;&quot;&gt;&amp;nbsp;Push(Position elem)&lt;/div&gt;&lt;div&gt;&lt;span style=&quot;border-color: var(--border-color); background-color: initial;&quot;&gt;&lt;br&gt;&lt;/span&gt;&lt;/div&gt;" style="shape=process;whiteSpace=wrap;html=1;backgroundOutline=1;sketch=1;hachureGap=4;jiggle=2;curveFitting=1;fontFamily=Architects Daughter;fontSource=https%3A%2F%2Ffonts.googleapis.com%2Fcss%3Ffamily%3DArchitects%2BDaughter;fontSize=20;" parent="1" vertex="1">
          <mxGeometry x="187.25" y="569" width="235.5" height="40" as="geometry" />
        </mxCell>
        <mxCell id="y-ZWZO6-LLxq5nnnECcD-45" style="edgeStyle=orthogonalEdgeStyle;rounded=0;sketch=1;hachureGap=4;jiggle=2;curveFitting=1;orthogonalLoop=1;jettySize=auto;html=1;exitX=0.5;exitY=1;exitDx=0;exitDy=0;entryX=0.5;entryY=0;entryDx=0;entryDy=0;fontFamily=Architects Daughter;fontSource=https%3A%2F%2Ffonts.googleapis.com%2Fcss%3Ffamily%3DArchitects%2BDaughter;fontSize=16;" parent="1" source="y-ZWZO6-LLxq5nnnECcD-40" target="y-ZWZO6-LLxq5nnnECcD-44" edge="1">
          <mxGeometry relative="1" as="geometry" />
        </mxCell>
        <mxCell id="y-ZWZO6-LLxq5nnnECcD-40" value="" style="rounded=0;whiteSpace=wrap;html=1;sketch=1;hachureGap=4;jiggle=2;curveFitting=1;fontFamily=Architects Daughter;fontSource=https%3A%2F%2Ffonts.googleapis.com%2Fcss%3Ffamily%3DArchitects%2BDaughter;fontSize=20;" parent="1" vertex="1">
          <mxGeometry x="200" y="649" width="241" height="60" as="geometry" />
        </mxCell>
        <mxCell id="y-ZWZO6-LLxq5nnnECcD-41" value="Position suankiPozisyon; &#xa;suankiPozisyon = labirentGiris;" style="text;whiteSpace=wrap;fontSize=17;fontFamily=Times New Roman;" parent="1" vertex="1">
          <mxGeometry x="214" y="649" width="239" height="50" as="geometry" />
        </mxCell>
        <mxCell id="y-ZWZO6-LLxq5nnnECcD-42" style="edgeStyle=orthogonalEdgeStyle;rounded=0;sketch=1;hachureGap=4;jiggle=2;curveFitting=1;orthogonalLoop=1;jettySize=auto;html=1;exitX=0.5;exitY=1;exitDx=0;exitDy=0;entryX=0.377;entryY=-0.047;entryDx=0;entryDy=0;entryPerimeter=0;fontFamily=Architects Daughter;fontSource=https%3A%2F%2Ffonts.googleapis.com%2Fcss%3Ffamily%3DArchitects%2BDaughter;fontSize=16;" parent="1" source="y-ZWZO6-LLxq5nnnECcD-39" target="y-ZWZO6-LLxq5nnnECcD-41" edge="1">
          <mxGeometry relative="1" as="geometry" />
        </mxCell>
        <mxCell id="y-ZWZO6-LLxq5nnnECcD-82" style="edgeStyle=orthogonalEdgeStyle;rounded=0;sketch=1;hachureGap=4;jiggle=2;curveFitting=1;orthogonalLoop=1;jettySize=auto;html=1;exitX=0.5;exitY=1;exitDx=0;exitDy=0;entryX=0.5;entryY=0;entryDx=0;entryDy=0;fontFamily=Architects Daughter;fontSource=https%3A%2F%2Ffonts.googleapis.com%2Fcss%3Ffamily%3DArchitects%2BDaughter;fontSize=16;" parent="1" source="y-ZWZO6-LLxq5nnnECcD-43" target="y-ZWZO6-LLxq5nnnECcD-101" edge="1">
          <mxGeometry relative="1" as="geometry">
            <mxPoint x="320" y="940" as="targetPoint" />
          </mxGeometry>
        </mxCell>
        <mxCell id="y-ZWZO6-LLxq5nnnECcD-43" value="Eğer a=1" style="shape=hexagon;perimeter=hexagonPerimeter2;whiteSpace=wrap;html=1;fixedSize=1;sketch=1;hachureGap=4;jiggle=2;curveFitting=1;fontFamily=Architects Daughter;fontSource=https%3A%2F%2Ffonts.googleapis.com%2Fcss%3Ffamily%3DArchitects%2BDaughter;fontSize=20;" parent="1" vertex="1">
          <mxGeometry x="247.75" y="850" width="145.5" height="40" as="geometry" />
        </mxCell>
        <mxCell id="y-ZWZO6-LLxq5nnnECcD-46" style="edgeStyle=orthogonalEdgeStyle;rounded=0;sketch=1;hachureGap=4;jiggle=2;curveFitting=1;orthogonalLoop=1;jettySize=auto;html=1;exitX=0.5;exitY=1;exitDx=0;exitDy=0;fontFamily=Architects Daughter;fontSource=https%3A%2F%2Ffonts.googleapis.com%2Fcss%3Ffamily%3DArchitects%2BDaughter;fontSize=16;" parent="1" source="y-ZWZO6-LLxq5nnnECcD-44" target="y-ZWZO6-LLxq5nnnECcD-43" edge="1">
          <mxGeometry relative="1" as="geometry" />
        </mxCell>
        <mxCell id="y-ZWZO6-LLxq5nnnECcD-44" value="a=1" style="rounded=0;whiteSpace=wrap;html=1;sketch=1;hachureGap=4;jiggle=2;curveFitting=1;fontFamily=Architects Daughter;fontSource=https%3A%2F%2Ffonts.googleapis.com%2Fcss%3Ffamily%3DArchitects%2BDaughter;fontSize=20;" parent="1" vertex="1">
          <mxGeometry x="270" y="744" width="100" height="40" as="geometry" />
        </mxCell>
        <mxCell id="y-ZWZO6-LLxq5nnnECcD-52" style="edgeStyle=orthogonalEdgeStyle;rounded=0;sketch=1;hachureGap=4;jiggle=2;curveFitting=1;orthogonalLoop=1;jettySize=auto;html=1;exitX=0.5;exitY=1;exitDx=0;exitDy=0;fontFamily=Architects Daughter;fontSource=https%3A%2F%2Ffonts.googleapis.com%2Fcss%3Ffamily%3DArchitects%2BDaughter;fontSize=16;entryX=0.478;entryY=0.03;entryDx=0;entryDy=0;entryPerimeter=0;" parent="1" source="y-ZWZO6-LLxq5nnnECcD-47" edge="1">
          <mxGeometry relative="1" as="geometry">
            <mxPoint x="837.9100000000001" y="1013" as="targetPoint" />
          </mxGeometry>
        </mxCell>
        <mxCell id="y-ZWZO6-LLxq5nnnECcD-53" value="H" style="edgeLabel;html=1;align=center;verticalAlign=middle;resizable=0;points=[];fontSize=20;fontFamily=Architects Daughter;" parent="y-ZWZO6-LLxq5nnnECcD-52" vertex="1" connectable="0">
          <mxGeometry x="-0.2" y="-2" relative="1" as="geometry">
            <mxPoint as="offset" />
          </mxGeometry>
        </mxCell>
        <mxCell id="y-ZWZO6-LLxq5nnnECcD-89" style="edgeStyle=orthogonalEdgeStyle;rounded=0;sketch=1;hachureGap=4;jiggle=2;curveFitting=1;orthogonalLoop=1;jettySize=auto;html=1;exitX=1;exitY=0.5;exitDx=0;exitDy=0;entryX=0;entryY=0.5;entryDx=0;entryDy=0;fontFamily=Architects Daughter;fontSource=https%3A%2F%2Ffonts.googleapis.com%2Fcss%3Ffamily%3DArchitects%2BDaughter;fontSize=16;" parent="1" source="y-ZWZO6-LLxq5nnnECcD-47" target="y-ZWZO6-LLxq5nnnECcD-88" edge="1">
          <mxGeometry relative="1" as="geometry" />
        </mxCell>
        <mxCell id="y-ZWZO6-LLxq5nnnECcD-90" value="E" style="edgeLabel;html=1;align=center;verticalAlign=middle;resizable=0;points=[];fontSize=20;fontFamily=Architects Daughter;" parent="y-ZWZO6-LLxq5nnnECcD-89" vertex="1" connectable="0">
          <mxGeometry x="0.1926" y="-4" relative="1" as="geometry">
            <mxPoint y="-6" as="offset" />
          </mxGeometry>
        </mxCell>
        <mxCell id="y-ZWZO6-LLxq5nnnECcD-47" value="" style="rhombus;whiteSpace=wrap;html=1;sketch=1;hachureGap=4;jiggle=2;curveFitting=1;fontFamily=Architects Daughter;fontSource=https%3A%2F%2Ffonts.googleapis.com%2Fcss%3Ffamily%3DArchitects%2BDaughter;fontSize=20;" parent="1" vertex="1">
          <mxGeometry x="700" y="822.5" width="280" height="95" as="geometry" />
        </mxCell>
        <mxCell id="y-ZWZO6-LLxq5nnnECcD-48" value="labirentKopya[suankiPozisyon.x]&#xa;[suankiPozisyon.y] == CIKIS" style="text;whiteSpace=wrap;fontSize=14;fontFamily=Garamond;" parent="1" vertex="1">
          <mxGeometry x="754" y="850" width="220" height="30" as="geometry" />
        </mxCell>
        <mxCell id="y-ZWZO6-LLxq5nnnECcD-49" style="edgeStyle=orthogonalEdgeStyle;rounded=0;sketch=1;hachureGap=4;jiggle=2;curveFitting=1;orthogonalLoop=1;jettySize=auto;html=1;exitX=1;exitY=0.5;exitDx=0;exitDy=0;entryX=0.026;entryY=0.509;entryDx=0;entryDy=0;entryPerimeter=0;fontFamily=Architects Daughter;fontSource=https%3A%2F%2Ffonts.googleapis.com%2Fcss%3Ffamily%3DArchitects%2BDaughter;fontSize=16;" parent="1" source="y-ZWZO6-LLxq5nnnECcD-43" target="y-ZWZO6-LLxq5nnnECcD-47" edge="1">
          <mxGeometry relative="1" as="geometry" />
        </mxCell>
        <mxCell id="y-ZWZO6-LLxq5nnnECcD-50" value="E" style="edgeLabel;html=1;align=center;verticalAlign=middle;resizable=0;points=[];fontSize=20;fontFamily=Architects Daughter;" parent="y-ZWZO6-LLxq5nnnECcD-49" vertex="1" connectable="0">
          <mxGeometry x="-0.1564" y="-2" relative="1" as="geometry">
            <mxPoint as="offset" />
          </mxGeometry>
        </mxCell>
        <mxCell id="y-ZWZO6-LLxq5nnnECcD-57" style="edgeStyle=orthogonalEdgeStyle;rounded=0;sketch=1;hachureGap=4;jiggle=2;curveFitting=1;orthogonalLoop=1;jettySize=auto;html=1;exitX=1;exitY=0.5;exitDx=0;exitDy=0;entryX=0;entryY=0.5;entryDx=0;entryDy=0;fontFamily=Architects Daughter;fontSource=https%3A%2F%2Ffonts.googleapis.com%2Fcss%3Ffamily%3DArchitects%2BDaughter;fontSize=16;" parent="1" source="y-ZWZO6-LLxq5nnnECcD-51" target="y-ZWZO6-LLxq5nnnECcD-58" edge="1">
          <mxGeometry relative="1" as="geometry">
            <mxPoint x="1047" y="1201" as="targetPoint" />
          </mxGeometry>
        </mxCell>
        <mxCell id="y-ZWZO6-LLxq5nnnECcD-62" value="E" style="edgeLabel;html=1;align=center;verticalAlign=middle;resizable=0;points=[];fontSize=20;fontFamily=Architects Daughter;" parent="y-ZWZO6-LLxq5nnnECcD-57" vertex="1" connectable="0">
          <mxGeometry x="-0.0058" y="4" relative="1" as="geometry">
            <mxPoint as="offset" />
          </mxGeometry>
        </mxCell>
        <mxCell id="y-ZWZO6-LLxq5nnnECcD-64" style="edgeStyle=orthogonalEdgeStyle;rounded=0;sketch=1;hachureGap=4;jiggle=2;curveFitting=1;orthogonalLoop=1;jettySize=auto;html=1;exitX=0.5;exitY=1;exitDx=0;exitDy=0;entryX=0.5;entryY=0;entryDx=0;entryDy=0;fontFamily=Architects Daughter;fontSource=https%3A%2F%2Ffonts.googleapis.com%2Fcss%3Ffamily%3DArchitects%2BDaughter;fontSize=16;" parent="1" source="y-ZWZO6-LLxq5nnnECcD-51" target="y-ZWZO6-LLxq5nnnECcD-63" edge="1">
          <mxGeometry relative="1" as="geometry" />
        </mxCell>
        <mxCell id="y-ZWZO6-LLxq5nnnECcD-65" value="H" style="edgeLabel;html=1;align=center;verticalAlign=middle;resizable=0;points=[];fontSize=20;fontFamily=Architects Daughter;" parent="y-ZWZO6-LLxq5nnnECcD-64" vertex="1" connectable="0">
          <mxGeometry x="-0.1444" y="1" relative="1" as="geometry">
            <mxPoint x="-2" as="offset" />
          </mxGeometry>
        </mxCell>
        <mxCell id="y-ZWZO6-LLxq5nnnECcD-51" value="&lt;font style=&quot;font-size: 17px;&quot; face=&quot;Times New Roman&quot;&gt;pozisyonYukari == YOL veya pozisyonYukari == CIKIS&lt;/font&gt;" style="rhombus;whiteSpace=wrap;html=1;sketch=1;hachureGap=4;jiggle=2;curveFitting=1;fontFamily=Architects Daughter;fontSource=https%3A%2F%2Ffonts.googleapis.com%2Fcss%3Ffamily%3DArchitects%2BDaughter;fontSize=20;" parent="1" vertex="1">
          <mxGeometry x="700" y="1146" width="300" height="110" as="geometry" />
        </mxCell>
        <mxCell id="y-ZWZO6-LLxq5nnnECcD-60" style="edgeStyle=orthogonalEdgeStyle;rounded=0;sketch=1;hachureGap=4;jiggle=2;curveFitting=1;orthogonalLoop=1;jettySize=auto;html=1;exitX=1;exitY=0.5;exitDx=0;exitDy=0;entryX=0;entryY=0.5;entryDx=0;entryDy=0;fontFamily=Architects Daughter;fontSource=https%3A%2F%2Ffonts.googleapis.com%2Fcss%3Ffamily%3DArchitects%2BDaughter;fontSize=16;" parent="1" source="y-ZWZO6-LLxq5nnnECcD-58" target="y-ZWZO6-LLxq5nnnECcD-59" edge="1">
          <mxGeometry relative="1" as="geometry" />
        </mxCell>
        <mxCell id="y-ZWZO6-LLxq5nnnECcD-58" value="&lt;font style=&quot;font-size: 14px;&quot;&gt;Push(suankiPozisyon);&lt;/font&gt;" style="shape=process;whiteSpace=wrap;html=1;backgroundOutline=1;sketch=1;hachureGap=4;jiggle=2;curveFitting=1;fontFamily=Architects Daughter;fontSource=https%3A%2F%2Ffonts.googleapis.com%2Fcss%3Ffamily%3DArchitects%2BDaughter;fontSize=20;align=center;" parent="1" vertex="1">
          <mxGeometry x="1060" y="1171" width="233" height="60" as="geometry" />
        </mxCell>
        <mxCell id="y-ZWZO6-LLxq5nnnECcD-100" style="edgeStyle=orthogonalEdgeStyle;rounded=0;sketch=1;hachureGap=4;jiggle=2;curveFitting=1;orthogonalLoop=1;jettySize=auto;html=1;exitX=1;exitY=0.5;exitDx=0;exitDy=0;fontFamily=Architects Daughter;fontSource=https%3A%2F%2Ffonts.googleapis.com%2Fcss%3Ffamily%3DArchitects%2BDaughter;fontSize=16;" parent="1" source="y-ZWZO6-LLxq5nnnECcD-59" edge="1">
          <mxGeometry relative="1" as="geometry">
            <mxPoint x="320" y="819" as="targetPoint" />
            <Array as="points">
              <mxPoint x="1606" y="1201" />
              <mxPoint x="1606" y="819" />
            </Array>
          </mxGeometry>
        </mxCell>
        <mxCell id="y-ZWZO6-LLxq5nnnECcD-59" value="&lt;font face=&quot;Times New Roman&quot; style=&quot;font-size: 15px;&quot;&gt;labirentKopya[suankiPozisyon.x][suankiPozisyon.y] = KESIF;&lt;br&gt;&amp;nbsp; &amp;nbsp; &amp;nbsp; &amp;nbsp; &amp;nbsp; &amp;nbsp; suankiPozisyon.x--;&lt;/font&gt;" style="rounded=0;whiteSpace=wrap;html=1;sketch=1;hachureGap=4;jiggle=2;curveFitting=1;fontFamily=Architects Daughter;fontSource=https%3A%2F%2Ffonts.googleapis.com%2Fcss%3Ffamily%3DArchitects%2BDaughter;fontSize=20;" parent="1" vertex="1">
          <mxGeometry x="1336" y="1161" width="250" height="80" as="geometry" />
        </mxCell>
        <mxCell id="y-ZWZO6-LLxq5nnnECcD-67" style="edgeStyle=orthogonalEdgeStyle;rounded=0;sketch=1;hachureGap=4;jiggle=2;curveFitting=1;orthogonalLoop=1;jettySize=auto;html=1;exitX=1;exitY=0.5;exitDx=0;exitDy=0;entryX=0;entryY=0.5;entryDx=0;entryDy=0;fontFamily=Architects Daughter;fontSource=https%3A%2F%2Ffonts.googleapis.com%2Fcss%3Ffamily%3DArchitects%2BDaughter;fontSize=16;" parent="1" source="y-ZWZO6-LLxq5nnnECcD-63" target="y-ZWZO6-LLxq5nnnECcD-66" edge="1">
          <mxGeometry relative="1" as="geometry" />
        </mxCell>
        <mxCell id="y-ZWZO6-LLxq5nnnECcD-68" value="E" style="edgeLabel;html=1;align=center;verticalAlign=middle;resizable=0;points=[];fontSize=20;fontFamily=Architects Daughter;" parent="y-ZWZO6-LLxq5nnnECcD-67" vertex="1" connectable="0">
          <mxGeometry x="-0.0872" y="-4" relative="1" as="geometry">
            <mxPoint y="-3" as="offset" />
          </mxGeometry>
        </mxCell>
        <mxCell id="y-ZWZO6-LLxq5nnnECcD-77" style="edgeStyle=orthogonalEdgeStyle;rounded=0;sketch=1;hachureGap=4;jiggle=2;curveFitting=1;orthogonalLoop=1;jettySize=auto;html=1;exitX=0.5;exitY=1;exitDx=0;exitDy=0;entryX=0.5;entryY=0;entryDx=0;entryDy=0;fontFamily=Architects Daughter;fontSource=https%3A%2F%2Ffonts.googleapis.com%2Fcss%3Ffamily%3DArchitects%2BDaughter;fontSize=16;" parent="1" source="y-ZWZO6-LLxq5nnnECcD-63" target="y-ZWZO6-LLxq5nnnECcD-73" edge="1">
          <mxGeometry relative="1" as="geometry" />
        </mxCell>
        <mxCell id="y-ZWZO6-LLxq5nnnECcD-78" value="H" style="edgeLabel;html=1;align=center;verticalAlign=middle;resizable=0;points=[];fontSize=20;fontFamily=Architects Daughter;" parent="y-ZWZO6-LLxq5nnnECcD-77" vertex="1" connectable="0">
          <mxGeometry x="-0.3333" y="1" relative="1" as="geometry">
            <mxPoint as="offset" />
          </mxGeometry>
        </mxCell>
        <mxCell id="y-ZWZO6-LLxq5nnnECcD-63" value="&lt;font style=&quot;font-size: 17px;&quot; face=&quot;Times New Roman&quot;&gt;pozisyonSaga == YOL veya&lt;br&gt;&amp;nbsp;pozisyonSaga == CIKIS&lt;/font&gt;" style="rhombus;whiteSpace=wrap;html=1;sketch=1;hachureGap=4;jiggle=2;curveFitting=1;fontFamily=Architects Daughter;fontSource=https%3A%2F%2Ffonts.googleapis.com%2Fcss%3Ffamily%3DArchitects%2BDaughter;fontSize=20;" parent="1" vertex="1">
          <mxGeometry x="675.5" y="1316" width="349" height="100" as="geometry" />
        </mxCell>
        <mxCell id="y-ZWZO6-LLxq5nnnECcD-70" style="edgeStyle=orthogonalEdgeStyle;rounded=0;sketch=1;hachureGap=4;jiggle=2;curveFitting=1;orthogonalLoop=1;jettySize=auto;html=1;exitX=1;exitY=0.5;exitDx=0;exitDy=0;entryX=0;entryY=0.5;entryDx=0;entryDy=0;fontFamily=Architects Daughter;fontSource=https%3A%2F%2Ffonts.googleapis.com%2Fcss%3Ffamily%3DArchitects%2BDaughter;fontSize=16;" parent="1" source="y-ZWZO6-LLxq5nnnECcD-66" target="y-ZWZO6-LLxq5nnnECcD-69" edge="1">
          <mxGeometry relative="1" as="geometry" />
        </mxCell>
        <mxCell id="y-ZWZO6-LLxq5nnnECcD-66" value="&lt;font style=&quot;font-size: 14px;&quot;&gt;Push(suankiPozisyon);&lt;/font&gt;" style="shape=process;whiteSpace=wrap;html=1;backgroundOutline=1;sketch=1;hachureGap=4;jiggle=2;curveFitting=1;fontFamily=Architects Daughter;fontSource=https%3A%2F%2Ffonts.googleapis.com%2Fcss%3Ffamily%3DArchitects%2BDaughter;fontSize=20;align=center;" parent="1" vertex="1">
          <mxGeometry x="1070" y="1336" width="233" height="60" as="geometry" />
        </mxCell>
        <mxCell id="y-ZWZO6-LLxq5nnnECcD-95" style="edgeStyle=orthogonalEdgeStyle;rounded=0;sketch=1;hachureGap=4;jiggle=2;curveFitting=1;orthogonalLoop=1;jettySize=auto;html=1;exitX=1;exitY=0.5;exitDx=0;exitDy=0;fontFamily=Architects Daughter;fontSource=https%3A%2F%2Ffonts.googleapis.com%2Fcss%3Ffamily%3DArchitects%2BDaughter;fontSize=16;" parent="1" source="y-ZWZO6-LLxq5nnnECcD-69" edge="1">
          <mxGeometry relative="1" as="geometry">
            <mxPoint x="1610" y="1190" as="targetPoint" />
            <Array as="points">
              <mxPoint x="1611" y="1366" />
            </Array>
          </mxGeometry>
        </mxCell>
        <mxCell id="y-ZWZO6-LLxq5nnnECcD-69" value="&lt;div style=&quot;font-size: 15px;&quot;&gt;&lt;font style=&quot;font-size: 15px;&quot; face=&quot;Times New Roman&quot;&gt;&amp;nbsp;labirentKopya[suankiPozisyon.x]&amp;nbsp; &amp;nbsp; &amp;nbsp; &amp;nbsp; &amp;nbsp;[suankiPozisyon.y] = KESIF;&lt;/font&gt;&lt;/div&gt;&lt;div style=&quot;font-size: 15px;&quot;&gt;&lt;font style=&quot;font-size: 15px;&quot; face=&quot;Times New Roman&quot;&gt;&amp;nbsp; &amp;nbsp; &amp;nbsp; &amp;nbsp; &amp;nbsp; &amp;nbsp; suankiPozisyon.y++;&lt;/font&gt;&lt;/div&gt;" style="rounded=0;whiteSpace=wrap;html=1;sketch=1;hachureGap=4;jiggle=2;curveFitting=1;fontFamily=Architects Daughter;fontSource=https%3A%2F%2Ffonts.googleapis.com%2Fcss%3Ffamily%3DArchitects%2BDaughter;fontSize=20;align=left;" parent="1" vertex="1">
          <mxGeometry x="1336" y="1326" width="250" height="80" as="geometry" />
        </mxCell>
        <mxCell id="y-ZWZO6-LLxq5nnnECcD-71" style="edgeStyle=orthogonalEdgeStyle;rounded=0;sketch=1;hachureGap=4;jiggle=2;curveFitting=1;orthogonalLoop=1;jettySize=auto;html=1;exitX=1;exitY=0.5;exitDx=0;exitDy=0;entryX=0;entryY=0.5;entryDx=0;entryDy=0;fontFamily=Architects Daughter;fontSource=https%3A%2F%2Ffonts.googleapis.com%2Fcss%3Ffamily%3DArchitects%2BDaughter;fontSize=16;" parent="1" source="y-ZWZO6-LLxq5nnnECcD-73" target="y-ZWZO6-LLxq5nnnECcD-75" edge="1">
          <mxGeometry relative="1" as="geometry" />
        </mxCell>
        <mxCell id="y-ZWZO6-LLxq5nnnECcD-72" value="E" style="edgeLabel;html=1;align=center;verticalAlign=middle;resizable=0;points=[];fontSize=20;fontFamily=Architects Daughter;" parent="y-ZWZO6-LLxq5nnnECcD-71" vertex="1" connectable="0">
          <mxGeometry x="-0.0872" y="-4" relative="1" as="geometry">
            <mxPoint y="-3" as="offset" />
          </mxGeometry>
        </mxCell>
        <mxCell id="y-ZWZO6-LLxq5nnnECcD-80" style="edgeStyle=orthogonalEdgeStyle;rounded=0;sketch=1;hachureGap=4;jiggle=2;curveFitting=1;orthogonalLoop=1;jettySize=auto;html=1;exitX=0.5;exitY=1;exitDx=0;exitDy=0;entryX=0.5;entryY=0;entryDx=0;entryDy=0;fontFamily=Architects Daughter;fontSource=https%3A%2F%2Ffonts.googleapis.com%2Fcss%3Ffamily%3DArchitects%2BDaughter;fontSize=16;" parent="1" source="y-ZWZO6-LLxq5nnnECcD-73" target="y-ZWZO6-LLxq5nnnECcD-79" edge="1">
          <mxGeometry relative="1" as="geometry" />
        </mxCell>
        <mxCell id="y-ZWZO6-LLxq5nnnECcD-73" value="&lt;font style=&quot;font-size: 15px;&quot; face=&quot;Times New Roman&quot;&gt;pozisyonAsagi == YOL veya&lt;br&gt;&amp;nbsp;pozisyonAsagi == CIKIS&lt;/font&gt;" style="rhombus;whiteSpace=wrap;html=1;sketch=1;hachureGap=4;jiggle=2;curveFitting=1;fontFamily=Architects Daughter;fontSource=https%3A%2F%2Ffonts.googleapis.com%2Fcss%3Ffamily%3DArchitects%2BDaughter;fontSize=20;" parent="1" vertex="1">
          <mxGeometry x="673.75" y="1486" width="349" height="100" as="geometry" />
        </mxCell>
        <mxCell id="y-ZWZO6-LLxq5nnnECcD-74" style="edgeStyle=orthogonalEdgeStyle;rounded=0;sketch=1;hachureGap=4;jiggle=2;curveFitting=1;orthogonalLoop=1;jettySize=auto;html=1;exitX=1;exitY=0.5;exitDx=0;exitDy=0;entryX=0;entryY=0.5;entryDx=0;entryDy=0;fontFamily=Architects Daughter;fontSource=https%3A%2F%2Ffonts.googleapis.com%2Fcss%3Ffamily%3DArchitects%2BDaughter;fontSize=16;" parent="1" source="y-ZWZO6-LLxq5nnnECcD-75" target="y-ZWZO6-LLxq5nnnECcD-76" edge="1">
          <mxGeometry relative="1" as="geometry" />
        </mxCell>
        <mxCell id="y-ZWZO6-LLxq5nnnECcD-75" value="&lt;font style=&quot;font-size: 14px;&quot;&gt;.Push(suankiPozisyon);&lt;/font&gt;" style="shape=process;whiteSpace=wrap;html=1;backgroundOutline=1;sketch=1;hachureGap=4;jiggle=2;curveFitting=1;fontFamily=Architects Daughter;fontSource=https%3A%2F%2Ffonts.googleapis.com%2Fcss%3Ffamily%3DArchitects%2BDaughter;fontSize=20;align=center;" parent="1" vertex="1">
          <mxGeometry x="1087.5" y="1506" width="233" height="60" as="geometry" />
        </mxCell>
        <mxCell id="y-ZWZO6-LLxq5nnnECcD-96" style="edgeStyle=orthogonalEdgeStyle;rounded=0;sketch=1;hachureGap=4;jiggle=2;curveFitting=1;orthogonalLoop=1;jettySize=auto;html=1;exitX=1;exitY=0.5;exitDx=0;exitDy=0;fontFamily=Architects Daughter;fontSource=https%3A%2F%2Ffonts.googleapis.com%2Fcss%3Ffamily%3DArchitects%2BDaughter;fontSize=16;" parent="1" source="y-ZWZO6-LLxq5nnnECcD-76" edge="1">
          <mxGeometry relative="1" as="geometry">
            <mxPoint x="1610" y="1360" as="targetPoint" />
            <Array as="points">
              <mxPoint x="1610" y="1536" />
              <mxPoint x="1610" y="1429" />
              <mxPoint x="1611" y="1429" />
            </Array>
          </mxGeometry>
        </mxCell>
        <mxCell id="y-ZWZO6-LLxq5nnnECcD-76" value="&lt;div style=&quot;font-size: 15px;&quot;&gt;&lt;div&gt;&lt;font face=&quot;Times New Roman&quot;&gt;labirentKopya[suankiPozisyon.x][suankiPozisyon.y] = KESIF;&lt;/font&gt;&lt;/div&gt;&lt;div&gt;&lt;font face=&quot;rBcJwNnsETLA8lZIlifo&quot;&gt;&amp;nbsp; &amp;nbsp; &amp;nbsp; &amp;nbsp; &amp;nbsp; &amp;nbsp; suankiPozisyon.x++;&lt;/font&gt;&lt;/div&gt;&lt;/div&gt;" style="rounded=0;whiteSpace=wrap;html=1;sketch=1;hachureGap=4;jiggle=2;curveFitting=1;fontFamily=Architects Daughter;fontSource=https%3A%2F%2Ffonts.googleapis.com%2Fcss%3Ffamily%3DArchitects%2BDaughter;fontSize=20;align=left;" parent="1" vertex="1">
          <mxGeometry x="1340" y="1496" width="250" height="80" as="geometry" />
        </mxCell>
        <mxCell id="y-ZWZO6-LLxq5nnnECcD-97" style="edgeStyle=orthogonalEdgeStyle;rounded=0;sketch=1;hachureGap=4;jiggle=2;curveFitting=1;orthogonalLoop=1;jettySize=auto;html=1;exitX=1;exitY=0.5;exitDx=0;exitDy=0;fontFamily=Architects Daughter;fontSource=https%3A%2F%2Ffonts.googleapis.com%2Fcss%3Ffamily%3DArchitects%2BDaughter;fontSize=16;" parent="1" source="y-ZWZO6-LLxq5nnnECcD-79" edge="1">
          <mxGeometry relative="1" as="geometry">
            <mxPoint x="1610" y="1530" as="targetPoint" />
          </mxGeometry>
        </mxCell>
        <mxCell id="y-ZWZO6-LLxq5nnnECcD-79" value="&lt;div style=&quot;&quot;&gt;&lt;font face=&quot;Times New Roman&quot; style=&quot;font-size: 20px;&quot;&gt;labirentKopya[suankiPozisyon.x][suankiPozisyon.y] = DUVAR;&lt;/font&gt;&lt;/div&gt;&lt;div style=&quot;&quot;&gt;&lt;font face=&quot;c9fD0_TrgGlAZfyWSyyx&quot; style=&quot;font-size: 20px;&quot;&gt;&amp;nbsp;suankiPozisyon = path.Pop();&lt;/font&gt;&lt;/div&gt;" style="rounded=0;whiteSpace=wrap;html=1;sketch=1;hachureGap=4;jiggle=2;curveFitting=1;fontFamily=Architects Daughter;fontSource=https%3A%2F%2Ffonts.googleapis.com%2Fcss%3Ffamily%3DArchitects%2BDaughter;fontSize=20;align=left;" parent="1" vertex="1">
          <mxGeometry x="711.25" y="1617" width="277.5" height="118" as="geometry" />
        </mxCell>
        <mxCell id="y-ZWZO6-LLxq5nnnECcD-87" style="edgeStyle=orthogonalEdgeStyle;rounded=0;sketch=1;hachureGap=4;jiggle=2;curveFitting=1;orthogonalLoop=1;jettySize=auto;html=1;exitX=0.5;exitY=1;exitDx=0;exitDy=0;entryX=0.5;entryY=0;entryDx=0;entryDy=0;fontFamily=Architects Daughter;fontSource=https%3A%2F%2Ffonts.googleapis.com%2Fcss%3Ffamily%3DArchitects%2BDaughter;fontSize=16;" parent="1" target="y-ZWZO6-LLxq5nnnECcD-51" edge="1">
          <mxGeometry relative="1" as="geometry">
            <mxPoint x="848.2500000000002" y="1110" as="sourcePoint" />
          </mxGeometry>
        </mxCell>
        <mxCell id="y-ZWZO6-LLxq5nnnECcD-83" value="&lt;font style=&quot;font-size: 15px;&quot; face=&quot;Times New Roman&quot;&gt;pozisyonYukari = labirentKopya[suankiPozisyon.x - 1][suankiPozisyon.y];&lt;br&gt;pozisyonSaga = labirentKopya[suankiPozisyon.x][suankiPozisyon.y + 1];&lt;br&gt;pozisyonAsagi = labirentKopya[suankiPozisyon.x + 1][suankiPozisyon.y];&lt;br&gt;pozisyonSola = labirentKopya[suankiPozisyon.x][suankiPozisyon.y - 1];&lt;/font&gt;" style="rounded=0;whiteSpace=wrap;html=1;sketch=1;hachureGap=4;jiggle=2;curveFitting=1;fontFamily=Architects Daughter;fontSource=https%3A%2F%2Ffonts.googleapis.com%2Fcss%3Ffamily%3DArchitects%2BDaughter;fontSize=20;align=left;" parent="1" vertex="1">
          <mxGeometry x="604.25" y="1010" width="470" height="100" as="geometry" />
        </mxCell>
        <mxCell id="y-ZWZO6-LLxq5nnnECcD-150" style="edgeStyle=orthogonalEdgeStyle;rounded=0;sketch=1;hachureGap=4;jiggle=2;curveFitting=1;orthogonalLoop=1;jettySize=auto;html=1;exitX=1;exitY=0.5;exitDx=0;exitDy=0;fontFamily=Architects Daughter;fontSource=https%3A%2F%2Ffonts.googleapis.com%2Fcss%3Ffamily%3DArchitects%2BDaughter;fontSize=16;entryX=0.5;entryY=0;entryDx=0;entryDy=0;" parent="1" source="y-ZWZO6-LLxq5nnnECcD-88" target="y-ZWZO6-LLxq5nnnECcD-146" edge="1">
          <mxGeometry relative="1" as="geometry">
            <mxPoint x="1744.6666259765625" y="1956.33349609375" as="targetPoint" />
            <Array as="points">
              <mxPoint x="1665" y="870" />
              <mxPoint x="1665" y="1903" />
              <mxPoint x="-382" y="1903" />
            </Array>
          </mxGeometry>
        </mxCell>
        <mxCell id="y-ZWZO6-LLxq5nnnECcD-88" value="a=0" style="rounded=0;whiteSpace=wrap;html=1;sketch=1;hachureGap=4;jiggle=2;curveFitting=1;fontFamily=Architects Daughter;fontSource=https%3A%2F%2Ffonts.googleapis.com%2Fcss%3Ffamily%3DArchitects%2BDaughter;fontSize=20;" parent="1" vertex="1">
          <mxGeometry x="1100" y="850" width="100" height="40" as="geometry" />
        </mxCell>
        <mxCell id="y-ZWZO6-LLxq5nnnECcD-104" style="edgeStyle=orthogonalEdgeStyle;rounded=0;sketch=1;hachureGap=4;jiggle=2;curveFitting=1;orthogonalLoop=1;jettySize=auto;html=1;exitX=0.5;exitY=1;exitDx=0;exitDy=0;entryX=0.5;entryY=0;entryDx=0;entryDy=0;fontFamily=Architects Daughter;fontSource=https%3A%2F%2Ffonts.googleapis.com%2Fcss%3Ffamily%3DArchitects%2BDaughter;fontSize=16;" parent="1" source="y-ZWZO6-LLxq5nnnECcD-101" target="y-ZWZO6-LLxq5nnnECcD-103" edge="1">
          <mxGeometry relative="1" as="geometry" />
        </mxCell>
        <mxCell id="y-ZWZO6-LLxq5nnnECcD-101" value="sonBoyut = path.GetLength();&lt;br&gt;*sagPath = new Position[SATIR*SUTUN]" style="rounded=0;whiteSpace=wrap;html=1;sketch=1;hachureGap=4;jiggle=2;curveFitting=1;fontFamily=Architects Daughter;fontSource=https%3A%2F%2Ffonts.googleapis.com%2Fcss%3Ffamily%3DArchitects%2BDaughter;fontSize=20;align=left;" parent="1" vertex="1">
          <mxGeometry x="122" y="971" width="397" height="60" as="geometry" />
        </mxCell>
        <mxCell id="y-ZWZO6-LLxq5nnnECcD-106" style="edgeStyle=orthogonalEdgeStyle;rounded=0;sketch=1;hachureGap=4;jiggle=2;curveFitting=1;orthogonalLoop=1;jettySize=auto;html=1;exitX=0;exitY=0.5;exitDx=0;exitDy=0;entryX=1;entryY=0.5;entryDx=0;entryDy=0;fontFamily=Architects Daughter;fontSource=https%3A%2F%2Ffonts.googleapis.com%2Fcss%3Ffamily%3DArchitects%2BDaughter;fontSize=16;" parent="1" source="y-ZWZO6-LLxq5nnnECcD-103" target="y-ZWZO6-LLxq5nnnECcD-105" edge="1">
          <mxGeometry relative="1" as="geometry" />
        </mxCell>
        <mxCell id="y-ZWZO6-LLxq5nnnECcD-107" value="E" style="edgeLabel;html=1;align=center;verticalAlign=middle;resizable=0;points=[];fontSize=20;fontFamily=Architects Daughter;" parent="y-ZWZO6-LLxq5nnnECcD-106" vertex="1" connectable="0">
          <mxGeometry x="-0.0294" y="-4" relative="1" as="geometry">
            <mxPoint x="1" y="2" as="offset" />
          </mxGeometry>
        </mxCell>
        <mxCell id="y-ZWZO6-LLxq5nnnECcD-109" value="H" style="edgeStyle=orthogonalEdgeStyle;rounded=0;sketch=1;hachureGap=4;jiggle=2;curveFitting=1;orthogonalLoop=1;jettySize=auto;html=1;exitX=0.5;exitY=1;exitDx=0;exitDy=0;entryX=0.5;entryY=0;entryDx=0;entryDy=0;fontFamily=Architects Daughter;fontSource=https%3A%2F%2Ffonts.googleapis.com%2Fcss%3Ffamily%3DArchitects%2BDaughter;fontSize=16;" parent="1" source="y-ZWZO6-LLxq5nnnECcD-103" target="y-ZWZO6-LLxq5nnnECcD-108" edge="1">
          <mxGeometry relative="1" as="geometry" />
        </mxCell>
        <mxCell id="y-ZWZO6-LLxq5nnnECcD-103" value="&lt;font style=&quot;font-size: 23px;&quot; face=&quot;Times New Roman&quot;&gt;i=sonBoyut -1, i--, i&amp;gt;=0&lt;/font&gt;" style="shape=hexagon;perimeter=hexagonPerimeter2;whiteSpace=wrap;html=1;fixedSize=1;sketch=1;hachureGap=4;jiggle=2;curveFitting=1;fontFamily=Architects Daughter;fontSource=https%3A%2F%2Ffonts.googleapis.com%2Fcss%3Ffamily%3DArchitects%2BDaughter;fontSize=20;" parent="1" vertex="1">
          <mxGeometry x="179" y="1085" width="283" height="80" as="geometry" />
        </mxCell>
        <mxCell id="y-ZWZO6-LLxq5nnnECcD-149" style="edgeStyle=orthogonalEdgeStyle;rounded=0;sketch=1;hachureGap=4;jiggle=2;curveFitting=1;orthogonalLoop=1;jettySize=auto;html=1;exitX=0;exitY=0.5;exitDx=0;exitDy=0;entryX=0.5;entryY=0;entryDx=0;entryDy=0;fontFamily=Architects Daughter;fontSource=https%3A%2F%2Ffonts.googleapis.com%2Fcss%3Ffamily%3DArchitects%2BDaughter;fontSize=16;" parent="1" source="y-ZWZO6-LLxq5nnnECcD-105" target="y-ZWZO6-LLxq5nnnECcD-103" edge="1">
          <mxGeometry relative="1" as="geometry" />
        </mxCell>
        <mxCell id="y-ZWZO6-LLxq5nnnECcD-105" value="sagPath[i] = path.Pop();" style="rounded=0;whiteSpace=wrap;html=1;sketch=1;hachureGap=4;jiggle=2;curveFitting=1;fontFamily=Architects Daughter;fontSource=https%3A%2F%2Ffonts.googleapis.com%2Fcss%3Ffamily%3DArchitects%2BDaughter;fontSize=20;align=left;" parent="1" vertex="1">
          <mxGeometry x="-137" y="1095" width="223" height="60" as="geometry" />
        </mxCell>
        <mxCell id="y-ZWZO6-LLxq5nnnECcD-112" style="edgeStyle=orthogonalEdgeStyle;rounded=0;sketch=1;hachureGap=4;jiggle=2;curveFitting=1;orthogonalLoop=1;jettySize=auto;html=1;exitX=0;exitY=0.5;exitDx=0;exitDy=0;entryX=1;entryY=0.5;entryDx=0;entryDy=0;fontFamily=Architects Daughter;fontSource=https%3A%2F%2Ffonts.googleapis.com%2Fcss%3Ffamily%3DArchitects%2BDaughter;fontSize=16;" parent="1" source="y-ZWZO6-LLxq5nnnECcD-108" target="y-ZWZO6-LLxq5nnnECcD-111" edge="1">
          <mxGeometry relative="1" as="geometry" />
        </mxCell>
        <mxCell id="y-ZWZO6-LLxq5nnnECcD-114" value="E" style="edgeLabel;html=1;align=center;verticalAlign=middle;resizable=0;points=[];fontSize=20;fontFamily=Architects Daughter;" parent="y-ZWZO6-LLxq5nnnECcD-112" vertex="1" connectable="0">
          <mxGeometry x="-0.0774" y="-2" relative="1" as="geometry">
            <mxPoint x="1" as="offset" />
          </mxGeometry>
        </mxCell>
        <mxCell id="y-ZWZO6-LLxq5nnnECcD-151" style="edgeStyle=orthogonalEdgeStyle;rounded=0;sketch=1;hachureGap=4;jiggle=2;curveFitting=1;orthogonalLoop=1;jettySize=auto;html=1;exitX=0.5;exitY=1;exitDx=0;exitDy=0;entryX=0.5;entryY=0;entryDx=0;entryDy=0;fontFamily=Architects Daughter;fontSource=https%3A%2F%2Ffonts.googleapis.com%2Fcss%3Ffamily%3DArchitects%2BDaughter;fontSize=16;" parent="1" source="y-ZWZO6-LLxq5nnnECcD-108" target="y-ZWZO6-LLxq5nnnECcD-130" edge="1">
          <mxGeometry relative="1" as="geometry">
            <Array as="points">
              <mxPoint x="320" y="1634" />
              <mxPoint x="-386" y="1634" />
            </Array>
          </mxGeometry>
        </mxCell>
        <mxCell id="y-ZWZO6-LLxq5nnnECcD-108" value="&lt;font style=&quot;font-size: 25px;&quot; face=&quot;Times New Roman&quot;&gt;&lt;font style=&quot;font-size: 25px;&quot;&gt;i = 0, i++,&lt;/font&gt;i &amp;lt; sonBoyut&lt;/font&gt;" style="shape=hexagon;perimeter=hexagonPerimeter2;whiteSpace=wrap;html=1;fixedSize=1;sketch=1;hachureGap=4;jiggle=2;curveFitting=1;fontFamily=Architects Daughter;fontSource=https%3A%2F%2Ffonts.googleapis.com%2Fcss%3Ffamily%3DArchitects%2BDaughter;fontSize=20;" parent="1" vertex="1">
          <mxGeometry x="178.5" y="1219" width="283" height="80" as="geometry" />
        </mxCell>
        <mxCell id="y-ZWZO6-LLxq5nnnECcD-116" style="edgeStyle=orthogonalEdgeStyle;rounded=0;sketch=1;hachureGap=4;jiggle=2;curveFitting=1;orthogonalLoop=1;jettySize=auto;html=1;exitX=0.5;exitY=1;exitDx=0;exitDy=0;entryX=0.5;entryY=0;entryDx=0;entryDy=0;fontFamily=Architects Daughter;fontSource=https%3A%2F%2Ffonts.googleapis.com%2Fcss%3Ffamily%3DArchitects%2BDaughter;fontSize=16;" parent="1" source="y-ZWZO6-LLxq5nnnECcD-110" target="y-ZWZO6-LLxq5nnnECcD-115" edge="1">
          <mxGeometry relative="1" as="geometry" />
        </mxCell>
        <mxCell id="y-ZWZO6-LLxq5nnnECcD-110" value="&lt;div style=&quot;font-size: 22px;&quot;&gt;&lt;font face=&quot;Times New Roman&quot; style=&quot;font-size: 22px;&quot;&gt;Position geciciPozisyon = sagPath[i]&lt;span style=&quot;background-color: initial;&quot;&gt;&amp;nbsp; &amp;nbsp; &amp;nbsp; &amp;nbsp; labirentGoruntule[geciciPozisyon.x][geciciPozisyon.y] = &#39;*&#39;&lt;/span&gt;&lt;/font&gt;&lt;/div&gt;" style="rounded=0;whiteSpace=wrap;html=1;sketch=1;hachureGap=4;jiggle=2;curveFitting=1;fontFamily=Architects Daughter;fontSource=https%3A%2F%2Ffonts.googleapis.com%2Fcss%3Ffamily%3DArchitects%2BDaughter;fontSize=20;align=left;" parent="1" vertex="1">
          <mxGeometry x="-597" y="1208" width="423" height="102" as="geometry" />
        </mxCell>
        <mxCell id="y-ZWZO6-LLxq5nnnECcD-113" style="edgeStyle=orthogonalEdgeStyle;rounded=0;sketch=1;hachureGap=4;jiggle=2;curveFitting=1;orthogonalLoop=1;jettySize=auto;html=1;exitX=0;exitY=0.5;exitDx=0;exitDy=0;entryX=1;entryY=0.5;entryDx=0;entryDy=0;fontFamily=Architects Daughter;fontSource=https%3A%2F%2Ffonts.googleapis.com%2Fcss%3Ffamily%3DArchitects%2BDaughter;fontSize=16;" parent="1" source="y-ZWZO6-LLxq5nnnECcD-111" target="y-ZWZO6-LLxq5nnnECcD-110" edge="1">
          <mxGeometry relative="1" as="geometry" />
        </mxCell>
        <mxCell id="y-ZWZO6-LLxq5nnnECcD-111" value="Labirent" style="shape=document;whiteSpace=wrap;html=1;boundedLbl=1;sketch=1;hachureGap=4;jiggle=2;curveFitting=1;fontFamily=Architects Daughter;fontSource=https%3A%2F%2Ffonts.googleapis.com%2Fcss%3Ffamily%3DArchitects%2BDaughter;fontSize=20;" parent="1" vertex="1">
          <mxGeometry x="-97" y="1219" width="120" height="80" as="geometry" />
        </mxCell>
        <mxCell id="y-ZWZO6-LLxq5nnnECcD-120" style="edgeStyle=orthogonalEdgeStyle;rounded=0;sketch=1;hachureGap=4;jiggle=2;curveFitting=1;orthogonalLoop=1;jettySize=auto;html=1;exitX=0;exitY=0.5;exitDx=0;exitDy=0;entryX=1;entryY=0.5;entryDx=0;entryDy=0;fontFamily=Architects Daughter;fontSource=https%3A%2F%2Ffonts.googleapis.com%2Fcss%3Ffamily%3DArchitects%2BDaughter;fontSize=16;" parent="1" source="y-ZWZO6-LLxq5nnnECcD-115" target="y-ZWZO6-LLxq5nnnECcD-117" edge="1">
          <mxGeometry relative="1" as="geometry" />
        </mxCell>
        <mxCell id="y-ZWZO6-LLxq5nnnECcD-121" value="E" style="edgeLabel;html=1;align=center;verticalAlign=middle;resizable=0;points=[];fontSize=20;fontFamily=Architects Daughter;" parent="y-ZWZO6-LLxq5nnnECcD-120" vertex="1" connectable="0">
          <mxGeometry x="0.0682" y="6" relative="1" as="geometry">
            <mxPoint y="-6" as="offset" />
          </mxGeometry>
        </mxCell>
        <mxCell id="y-ZWZO6-LLxq5nnnECcD-133" style="edgeStyle=orthogonalEdgeStyle;rounded=0;sketch=1;hachureGap=4;jiggle=2;curveFitting=1;orthogonalLoop=1;jettySize=auto;html=1;exitX=0.5;exitY=1;exitDx=0;exitDy=0;fontFamily=Architects Daughter;fontSource=https%3A%2F%2Ffonts.googleapis.com%2Fcss%3Ffamily%3DArchitects%2BDaughter;fontSize=16;" parent="1" source="y-ZWZO6-LLxq5nnnECcD-115" target="y-ZWZO6-LLxq5nnnECcD-131" edge="1">
          <mxGeometry relative="1" as="geometry" />
        </mxCell>
        <mxCell id="y-ZWZO6-LLxq5nnnECcD-115" value="&lt;font face=&quot;Times New Roman&quot;&gt;a = 0, a++,a &amp;lt; SATIR&lt;/font&gt;" style="shape=hexagon;perimeter=hexagonPerimeter2;whiteSpace=wrap;html=1;fixedSize=1;sketch=1;hachureGap=4;jiggle=2;curveFitting=1;fontFamily=Architects Daughter;fontSource=https%3A%2F%2Ffonts.googleapis.com%2Fcss%3Ffamily%3DArchitects%2BDaughter;fontSize=20;align=center;" parent="1" vertex="1">
          <mxGeometry x="-508.5" y="1419" width="246" height="80" as="geometry" />
        </mxCell>
        <mxCell id="y-ZWZO6-LLxq5nnnECcD-123" style="edgeStyle=orthogonalEdgeStyle;rounded=0;sketch=1;hachureGap=4;jiggle=2;curveFitting=1;orthogonalLoop=1;jettySize=auto;html=1;exitX=0;exitY=0.5;exitDx=0;exitDy=0;entryX=1;entryY=0.25;entryDx=0;entryDy=0;fontFamily=Architects Daughter;fontSource=https%3A%2F%2Ffonts.googleapis.com%2Fcss%3Ffamily%3DArchitects%2BDaughter;fontSize=16;" parent="1" source="y-ZWZO6-LLxq5nnnECcD-117" target="y-ZWZO6-LLxq5nnnECcD-122" edge="1">
          <mxGeometry relative="1" as="geometry" />
        </mxCell>
        <mxCell id="y-ZWZO6-LLxq5nnnECcD-124" value="E" style="edgeLabel;html=1;align=center;verticalAlign=middle;resizable=0;points=[];fontSize=20;fontFamily=Architects Daughter;" parent="y-ZWZO6-LLxq5nnnECcD-123" vertex="1" connectable="0">
          <mxGeometry x="-0.0043" y="-4" relative="1" as="geometry">
            <mxPoint y="3" as="offset" />
          </mxGeometry>
        </mxCell>
        <mxCell id="y-ZWZO6-LLxq5nnnECcD-129" style="edgeStyle=orthogonalEdgeStyle;rounded=0;sketch=1;hachureGap=4;jiggle=2;curveFitting=1;orthogonalLoop=1;jettySize=auto;html=1;exitX=0.5;exitY=1;exitDx=0;exitDy=0;fontFamily=Architects Daughter;fontSource=https%3A%2F%2Ffonts.googleapis.com%2Fcss%3Ffamily%3DArchitects%2BDaughter;fontSize=16;" parent="1" source="y-ZWZO6-LLxq5nnnECcD-117" target="y-ZWZO6-LLxq5nnnECcD-115" edge="1">
          <mxGeometry relative="1" as="geometry">
            <mxPoint x="-524" y="1395" as="targetPoint" />
            <Array as="points">
              <mxPoint x="-755" y="1564" />
              <mxPoint x="-1283" y="1564" />
              <mxPoint x="-1283" y="1350" />
              <mxPoint x="-385" y="1350" />
            </Array>
          </mxGeometry>
        </mxCell>
        <mxCell id="y-ZWZO6-LLxq5nnnECcD-117" value="&lt;font face=&quot;Times New Roman&quot;&gt;b = 0, b++,b &amp;lt; SUTUN&lt;/font&gt;" style="shape=hexagon;perimeter=hexagonPerimeter2;whiteSpace=wrap;html=1;fixedSize=1;sketch=1;hachureGap=4;jiggle=2;curveFitting=1;fontFamily=Architects Daughter;fontSource=https%3A%2F%2Ffonts.googleapis.com%2Fcss%3Ffamily%3DArchitects%2BDaughter;fontSize=20;align=center;" parent="1" vertex="1">
          <mxGeometry x="-878" y="1421" width="246" height="80" as="geometry" />
        </mxCell>
        <mxCell id="y-ZWZO6-LLxq5nnnECcD-128" style="edgeStyle=orthogonalEdgeStyle;rounded=0;sketch=1;hachureGap=4;jiggle=2;curveFitting=1;orthogonalLoop=1;jettySize=auto;html=1;exitX=0.5;exitY=0;exitDx=0;exitDy=0;fontFamily=Architects Daughter;fontSource=https%3A%2F%2Ffonts.googleapis.com%2Fcss%3Ffamily%3DArchitects%2BDaughter;fontSize=16;entryX=0.5;entryY=0;entryDx=0;entryDy=0;" parent="1" source="y-ZWZO6-LLxq5nnnECcD-122" target="y-ZWZO6-LLxq5nnnECcD-117" edge="1">
          <mxGeometry relative="1" as="geometry">
            <mxPoint x="-464" y="1344" as="targetPoint" />
          </mxGeometry>
        </mxCell>
        <mxCell id="y-ZWZO6-LLxq5nnnECcD-122" value="labirentGoruntule[a][b]" style="shape=document;whiteSpace=wrap;html=1;boundedLbl=1;sketch=1;hachureGap=4;jiggle=2;curveFitting=1;fontFamily=Architects Daughter;fontSource=https%3A%2F%2Ffonts.googleapis.com%2Fcss%3Ffamily%3DArchitects%2BDaughter;fontSize=20;" parent="1" vertex="1">
          <mxGeometry x="-1220" y="1441" width="241" height="80" as="geometry" />
        </mxCell>
        <mxCell id="y-ZWZO6-LLxq5nnnECcD-136" style="edgeStyle=orthogonalEdgeStyle;rounded=0;sketch=1;hachureGap=4;jiggle=2;curveFitting=1;orthogonalLoop=1;jettySize=auto;html=1;exitX=0;exitY=0.5;exitDx=0;exitDy=0;entryX=1;entryY=0.5;entryDx=0;entryDy=0;fontFamily=Architects Daughter;fontSource=https%3A%2F%2Ffonts.googleapis.com%2Fcss%3Ffamily%3DArchitects%2BDaughter;fontSize=16;" parent="1" source="y-ZWZO6-LLxq5nnnECcD-130" target="y-ZWZO6-LLxq5nnnECcD-135" edge="1">
          <mxGeometry relative="1" as="geometry" />
        </mxCell>
        <mxCell id="y-ZWZO6-LLxq5nnnECcD-137" value="E" style="edgeLabel;html=1;align=center;verticalAlign=middle;resizable=0;points=[];fontSize=20;fontFamily=Architects Daughter;" parent="y-ZWZO6-LLxq5nnnECcD-136" vertex="1" connectable="0">
          <mxGeometry x="-0.0713" y="4" relative="1" as="geometry">
            <mxPoint as="offset" />
          </mxGeometry>
        </mxCell>
        <mxCell id="y-ZWZO6-LLxq5nnnECcD-145" style="edgeStyle=orthogonalEdgeStyle;rounded=0;sketch=1;hachureGap=4;jiggle=2;curveFitting=1;orthogonalLoop=1;jettySize=auto;html=1;exitX=0.5;exitY=1;exitDx=0;exitDy=0;entryX=0.5;entryY=0;entryDx=0;entryDy=0;fontFamily=Architects Daughter;fontSource=https%3A%2F%2Ffonts.googleapis.com%2Fcss%3Ffamily%3DArchitects%2BDaughter;fontSize=16;" parent="1" source="y-ZWZO6-LLxq5nnnECcD-130" target="y-ZWZO6-LLxq5nnnECcD-144" edge="1">
          <mxGeometry relative="1" as="geometry" />
        </mxCell>
        <mxCell id="y-ZWZO6-LLxq5nnnECcD-130" value="&lt;font style=&quot;font-size: 22px;&quot; face=&quot;Times New Roman&quot;&gt;a = 0; a &amp;lt; SATIR; a++&lt;/font&gt;" style="shape=hexagon;perimeter=hexagonPerimeter2;whiteSpace=wrap;html=1;fixedSize=1;sketch=1;hachureGap=4;jiggle=2;curveFitting=1;fontFamily=Architects Daughter;fontSource=https%3A%2F%2Ffonts.googleapis.com%2Fcss%3Ffamily%3DArchitects%2BDaughter;fontSize=20;" parent="1" vertex="1">
          <mxGeometry x="-515.5" y="1661" width="260" height="80" as="geometry" />
        </mxCell>
        <mxCell id="y-ZWZO6-LLxq5nnnECcD-134" style="edgeStyle=orthogonalEdgeStyle;rounded=0;sketch=1;hachureGap=4;jiggle=2;curveFitting=1;orthogonalLoop=1;jettySize=auto;html=1;exitX=0.5;exitY=1;exitDx=0;exitDy=0;entryX=0.5;entryY=0;entryDx=0;entryDy=0;fontFamily=Architects Daughter;fontSource=https%3A%2F%2Ffonts.googleapis.com%2Fcss%3Ffamily%3DArchitects%2BDaughter;fontSize=16;" parent="1" source="y-ZWZO6-LLxq5nnnECcD-131" target="y-ZWZO6-LLxq5nnnECcD-130" edge="1">
          <mxGeometry relative="1" as="geometry" />
        </mxCell>
        <mxCell id="y-ZWZO6-LLxq5nnnECcD-131" value="&lt;font face=&quot;Times New Roman&quot;&gt;labirentGoruntule[geciciPozisyon[geciciPozisyon.y] = &#39;&amp;nbsp; &#39;;&lt;/font&gt;" style="rounded=0;whiteSpace=wrap;html=1;sketch=1;hachureGap=4;jiggle=2;curveFitting=1;fontFamily=Architects Daughter;fontSource=https%3A%2F%2Ffonts.googleapis.com%2Fcss%3Ffamily%3DArchitects%2BDaughter;fontSize=20;align=left;" parent="1" vertex="1">
          <mxGeometry x="-627" y="1554" width="483" height="60" as="geometry" />
        </mxCell>
        <mxCell id="y-ZWZO6-LLxq5nnnECcD-140" style="edgeStyle=orthogonalEdgeStyle;rounded=0;sketch=1;hachureGap=4;jiggle=2;curveFitting=1;orthogonalLoop=1;jettySize=auto;html=1;exitX=0;exitY=0.5;exitDx=0;exitDy=0;entryX=1;entryY=0.5;entryDx=0;entryDy=0;fontFamily=Architects Daughter;fontSource=https%3A%2F%2Ffonts.googleapis.com%2Fcss%3Ffamily%3DArchitects%2BDaughter;fontSize=16;" parent="1" source="y-ZWZO6-LLxq5nnnECcD-135" target="y-ZWZO6-LLxq5nnnECcD-138" edge="1">
          <mxGeometry relative="1" as="geometry" />
        </mxCell>
        <mxCell id="y-ZWZO6-LLxq5nnnECcD-135" value="&lt;font face=&quot;Times New Roman&quot;&gt;b = 0, b++,b &amp;lt; SUTUN&lt;/font&gt;" style="shape=hexagon;perimeter=hexagonPerimeter2;whiteSpace=wrap;html=1;fixedSize=1;sketch=1;hachureGap=4;jiggle=2;curveFitting=1;fontFamily=Architects Daughter;fontSource=https%3A%2F%2Ffonts.googleapis.com%2Fcss%3Ffamily%3DArchitects%2BDaughter;fontSize=20;align=center;" parent="1" vertex="1">
          <mxGeometry x="-845" y="1661" width="235" height="80" as="geometry" />
        </mxCell>
        <mxCell id="y-ZWZO6-LLxq5nnnECcD-141" style="edgeStyle=orthogonalEdgeStyle;rounded=0;sketch=1;hachureGap=4;jiggle=2;curveFitting=1;orthogonalLoop=1;jettySize=auto;html=1;exitX=0.5;exitY=0;exitDx=0;exitDy=0;fontFamily=Architects Daughter;fontSource=https%3A%2F%2Ffonts.googleapis.com%2Fcss%3Ffamily%3DArchitects%2BDaughter;fontSize=16;entryX=0.5;entryY=0;entryDx=0;entryDy=0;" parent="1" source="y-ZWZO6-LLxq5nnnECcD-138" target="y-ZWZO6-LLxq5nnnECcD-135" edge="1">
          <mxGeometry relative="1" as="geometry">
            <mxPoint x="-746.9999564034597" y="1596.7142857142858" as="targetPoint" />
          </mxGeometry>
        </mxCell>
        <mxCell id="y-ZWZO6-LLxq5nnnECcD-138" value="labirentGoruntule[a][b]" style="shape=document;whiteSpace=wrap;html=1;boundedLbl=1;sketch=1;hachureGap=4;jiggle=2;curveFitting=1;fontFamily=Architects Daughter;fontSource=https%3A%2F%2Ffonts.googleapis.com%2Fcss%3Ffamily%3DArchitects%2BDaughter;fontSize=20;size=0.36309487479073255;" parent="1" vertex="1">
          <mxGeometry x="-1193" y="1661" width="241" height="80" as="geometry" />
        </mxCell>
        <mxCell id="y-ZWZO6-LLxq5nnnECcD-143" style="edgeStyle=orthogonalEdgeStyle;rounded=0;sketch=1;hachureGap=4;jiggle=2;curveFitting=1;orthogonalLoop=1;jettySize=auto;html=1;fontFamily=Architects Daughter;fontSource=https%3A%2F%2Ffonts.googleapis.com%2Fcss%3Ffamily%3DArchitects%2BDaughter;fontSize=16;entryX=0.454;entryY=0.018;entryDx=0;entryDy=0;entryPerimeter=0;exitX=0.5;exitY=1;exitDx=0;exitDy=0;" parent="1" source="y-ZWZO6-LLxq5nnnECcD-135" target="y-ZWZO6-LLxq5nnnECcD-130" edge="1">
          <mxGeometry relative="1" as="geometry">
            <mxPoint x="-394" y="1641" as="targetPoint" />
            <mxPoint x="-764" y="1764" as="sourcePoint" />
            <Array as="points">
              <mxPoint x="-728" y="1765" />
              <mxPoint x="-1292" y="1765" />
              <mxPoint x="-1292" y="1624" />
              <mxPoint x="-394" y="1624" />
              <mxPoint x="-394" y="1662" />
            </Array>
          </mxGeometry>
        </mxCell>
        <mxCell id="y-ZWZO6-LLxq5nnnECcD-147" value="" style="edgeStyle=orthogonalEdgeStyle;rounded=0;sketch=1;hachureGap=4;jiggle=2;curveFitting=1;orthogonalLoop=1;jettySize=auto;html=1;fontFamily=Architects Daughter;fontSource=https%3A%2F%2Ffonts.googleapis.com%2Fcss%3Ffamily%3DArchitects%2BDaughter;fontSize=16;exitX=0.515;exitY=0.775;exitDx=0;exitDy=0;exitPerimeter=0;" parent="1" source="y-ZWZO6-LLxq5nnnECcD-144" target="y-ZWZO6-LLxq5nnnECcD-146" edge="1">
          <mxGeometry relative="1" as="geometry" />
        </mxCell>
        <mxCell id="y-ZWZO6-LLxq5nnnECcD-144" value="Çıkışa Gelindi" style="shape=document;whiteSpace=wrap;html=1;boundedLbl=1;sketch=1;hachureGap=4;jiggle=2;curveFitting=1;fontFamily=Architects Daughter;fontSource=https%3A%2F%2Ffonts.googleapis.com%2Fcss%3Ffamily%3DArchitects%2BDaughter;fontSize=20;size=0.36309487479073255;" parent="1" vertex="1">
          <mxGeometry x="-506" y="1801" width="241" height="80" as="geometry" />
        </mxCell>
        <mxCell id="y-ZWZO6-LLxq5nnnECcD-146" value="Dur" style="ellipse;whiteSpace=wrap;html=1;sketch=1;hachureGap=4;jiggle=2;curveFitting=1;fontFamily=Architects Daughter;fontSource=https%3A%2F%2Ffonts.googleapis.com%2Fcss%3Ffamily%3DArchitects%2BDaughter;fontSize=20;" parent="1" vertex="1">
          <mxGeometry x="-432" y="1947" width="100" height="55" as="geometry" />
        </mxCell>
      </root>
    </mxGraphModel>
  </diagram>
</mxfile>
